{
  "accessors": [
    {
      "bufferView": 2,
      "componentType": 5126,
      "count": 855,
      "max": [
        0.98308098316192627,
        0.79495799541473389,
        1.014799952507019
      ],
      "min": [
        -0.98308098316192627,
        -1.0832749605178833,
        -0.95520299673080444
      ],
      "type": "VEC3"
    },
    {
      "bufferView": 2,
      "byteOffset": 10260,
      "componentType": 5126,
      "count": 855,
      "max": [
        0.99897760152816772,
        0.99999880790710449,
        0.99997043609619141
      ],
      "min": [
        -0.99897760152816772,
        -0.99999988079071045,
        -0.99974793195724487
      ],
      "type": "VEC3"
    },
    {
      "bufferView": 3,
      "componentType": 5126,
      "count": 855,
      "max": [
        1,
        0.99994629621505737,
        0.99768286943435669,
        1
      ],
      "min": [
        -0.97389966249465942,
        -0.99997043609619141,
        -0.99087333679199219,
        1
      ],
      "type": "VEC4"
    },
    {
      "bufferView": 1,
      "componentType": 5126,
      "count": 855,
      "max": [
        0.99680697917938232,
        0.99611598253250122
      ],
      "min": [
        0.0049370001070201397,
        0.0064590000547468662
      ],
      "type": "VEC2"
    },
    {
      "bufferView": 0,
      "componentType": 5125,
      "count": 4170,
      "max": [
        854
      ],
      "min": [
        0
      ],
      "type": "SCALAR"
    },
    {
      "bufferView": 2,
      "byteOffset": 20520,
      "componentType": 5126,
      "count": 3039,
      "max": [
        1.0259640216827393,
        0.82863801717758179,
        0.99503600597381592
      ],
      "min": [
        -1.0259640216827393,
        -0.97370600700378418,
        -1.1477210521697998
      ],
      "type": "VEC3"
    },
    {
      "bufferView": 2,
      "byteOffset": 56988,
      "componentType": 5126,
      "count": 3039,
      "max": [
        0.99908369779586792,
        0.9996374249458313,
        0.9995080828666687
      ],
      "min": [
        -0.99908369779586792,
        -0.99999880790710449,
        -0.9993138313293457
      ],
      "type": "VEC3"
    },
    {
      "bufferView": 3,
      "byteOffset": 13680,
      "componentType": 5126,
      "count": 3039,
      "max": [
        1,
        0.99951952695846558,
        0.99999713897705078,
        1
      ],
      "min": [
        -0.99981808662414551,
        -0.99934095144271851,
        -0.99967056512832642,
        -1
      ],
      "type": "VEC4"
    },
    {
      "bufferView": 1,
      "byteOffset": 6840,
      "componentType": 5126,
      "count": 3039,
      "max": [
        0.99773502349853516,
        0.99905699491500854
      ],
      "min": [
        0.0017729999963194132,
        0.0020280000753700733
      ],
      "type": "VEC2"
    },
    {
      "bufferView": 0,
      "byteOffset": 16680,
      "componentType": 5125,
      "count": 13512,
      "max": [
        3038
      ],
      "min": [
        0
      ],
      "type": "SCALAR"
    },
    {
      "bufferView": 2,
      "byteOffset": 93456,
      "componentType": 5126,
      "count": 447,
      "max": [
        1.0101850032806396,
        0.61161398887634277,
        -0.073441997170448303
      ],
      "min": [
        -1.0101850032806396,
        0.011202000081539154,
        -1.0356899499893188
      ],
      "type": "VEC3"
    },
    {
      "bufferView": 2,
      "byteOffset": 98820,
      "componentType": 5126,
      "count": 447,
      "max": [
        0.99464553594589233,
        0.99429112672805786,
        0.99551844596862793
      ],
      "min": [
        -0.99464553594589233,
        -0.99380475282669067,
        -0.99890893697738647
      ],
      "type": "VEC3"
    },
    {
      "bufferView": 3,
      "byteOffset": 62304,
      "componentType": 5126,
      "count": 447,
      "max": [
        0.99570250511169434,
        0.99637651443481445,
        0.99137294292449951,
        1
      ],
      "min": [
        -0.99903452396392822,
        -0.99709039926528931,
        -0.99919986724853516,
        1
      ],
      "type": "VEC4"
    },
    {
      "bufferView": 1,
      "byteOffset": 31152,
      "componentType": 5126,
      "count": 447,
      "max": [
        0.96682101488113403,
        0.83293098211288452
      ],
      "min": [
        0.068098999559879303,
        0.00096500001382082701
      ],
      "type": "VEC2"
    },
    {
      "bufferView": 0,
      "byteOffset": 70728,
      "componentType": 5125,
      "count": 2136,
      "max": [
        446
      ],
      "min": [
        0
      ],
      "type": "SCALAR"
    },
    {
      "bufferView": 2,
      "byteOffset": 104184,
      "componentType": 5126,
      "count": 1216,
      "max": [
        1.7976139783859253,
        1.4620410203933716,
        1.5116239786148071
      ],
      "min": [
        -1.7976139783859253,
        -0.34511899948120117,
        0.018904000520706177
      ],
      "type": "VEC3"
    },
    {
      "bufferView": 2,
      "byteOffset": 118776,
      "componentType": 5126,
      "count": 1216,
      "max": [
        0.99945360422134399,
        0.98900413513183594,
        0.98979055881500244
      ],
      "min": [
        -0.99945360422134399,
        -0.95411229133605957,
        -0.98704397678375244
      ],
      "type": "VEC3"
    },
    {
      "bufferView": 3,
      "byteOffset": 69456,
      "componentType": 5126,
      "count": 1216,
      "max": [
        0.99361413717269897,
        0.96817684173583984,
        0.97592443227767944,
        1
      ],
      "min": [
        -0.99089539051055908,
        -0.99834132194519043,
        -0.99315065145492554,
        -1
      ],
      "type": "VEC4"
    },
    {
      "bufferView": 1,
      "byteOffset": 34728,
      "componentType": 5126,
      "count": 1216,
      "max": [
        0.98964798450469971,
        0.98215997219085693
      ],
      "min": [
        0.0077840001322329044,
        0.0084840003401041031
      ],
      "type": "VEC2"
    },
    {
      "bufferView": 0,
      "byteOffset": 79272,
      "componentType": 5125,
      "count": 5436,
      "max": [
        1215
      ],
      "min": [
        0
      ],
      "type": "SCALAR"
    }
  ],
  "asset": {
    "extras": {
      "author": "Tatiana Kunitsyna (https://sketchfab.com/Litari)",
      "license": "CC-BY-4.0 (http://creativecommons.org/licenses/by/4.0/)",
      "source": "https://sketchfab.com/models/96cad55794014b9386b805c2df6dad1a",
      "title": "Surveillance Drone"
    },
    "generator": "Sketchfab-3.23.4",
    "version": "2.0"
  },
  "bufferViews": [
    {
      "buffer": 0,
      "byteLength": 101016,
      "byteOffset": 0,
      "name": "floatBufferViews",
      "target": 34963
    },
    {
      "buffer": 0,
      "byteLength": 44456,
      "byteOffset": 101016,
      "byteStride": 8,
      "name": "floatBufferViews",
      "target": 34962
    },
    {
      "buffer": 0,
      "byteLength": 133368,
      "byteOffset": 145472,
      "byteStride": 12,
      "name": "floatBufferViews",
      "target": 34962
    },
    {
      "buffer": 0,
      "byteLength": 88912,
      "byteOffset": 278840,
      "byteStride": 16,
      "name": "floatBufferViews",
      "target": 34962
    }
  ],
  "buffers": [
    {
      "byteLength": 367752,
      "uri": "scene.bin"
    }
  ],
  "images": [
    {
      "uri": "textures/Part3_emissive.png"
    },
    {
      "uri": "textures/Part3_metallicRoughness.png"
    },
    {
      "uri": "textures/Part3_normal.png"
    },
    {
      "uri": "textures/Part3_baseColor.png"
    },
    {
      "uri": "textures/Part1_emissive.png"
    },
    {
      "uri": "textures/Part1_metallicRoughness.png"
    },
    {
      "uri": "textures/Part1_normal.png"
    },
    {
      "uri": "textures/Part1_baseColor.png"
    },
    {
      "uri": "textures/Part2_baseColor.png"
    },
    {
      "uri": "textures/Part2_emissive.png"
    },
    {
      "uri": "textures/Part2_metallicRoughness.png"
    },
    {
      "uri": "textures/Part2_normal.png"
    }
  ],
  "materials": [
    {
      "doubleSided": true,
      "emissiveFactor": [
        1,
        1,
        1
      ],
      "emissiveTexture": {
        "index": 4,
        "texCoord": 0
      },
      "name": "Part1",
      "normalTexture": {
        "index": 6,
        "scale": 1,
        "texCoord": 0
      },
      "occlusionTexture": {
        "index": 5,
        "strength": 1,
        "texCoord": 0
      },
      "pbrMetallicRoughness": {
        "baseColorFactor": [
          1,
          1,
          1,
          1
        ],
        "baseColorTexture": {
          "index": 7,
          "texCoord": 0
        },
        "metallicFactor": 1,
        "metallicRoughnessTexture": {
          "index": 5,
          "texCoord": 0
        },
        "roughnessFactor": 1
      }
    },
    {
      "alphaMode": "BLEND",
      "doubleSided": false,
      "emissiveFactor": [
        1,
        1,
        1
      ],
      "emissiveTexture": {
        "index": 9,
        "texCoord": 0
      },
      "name": "Part2",
      "normalTexture": {
        "index": 11,
        "scale": 1,
        "texCoord": 0
      },
      "occlusionTexture": {
        "index": 10,
        "strength": 1,
        "texCoord": 0
      },
      "pbrMetallicRoughness": {
        "baseColorFactor": [
          1,
          1,
          1,
          1
        ],
        "baseColorTexture": {
          "index": 8,
          "texCoord": 0
        },
        "metallicFactor": 1,
        "metallicRoughnessTexture": {
          "index": 10,
          "texCoord": 0
        },
        "roughnessFactor": 1
      }
    },
    {
      "doubleSided": true,
      "emissiveFactor": [
        1,
        1,
        1
      ],
      "emissiveTexture": {
        "index": 0,
        "texCoord": 0
      },
      "name": "Part3",
      "normalTexture": {
        "index": 2,
        "scale": 1,
        "texCoord": 0
      },
      "occlusionTexture": {
        "index": 1,
        "strength": 1,
        "texCoord": 0
      },
      "pbrMetallicRoughness": {
        "baseColorFactor": [
          1,
          1,
          1,
          1
        ],
        "baseColorTexture": {
          "index": 3,
          "texCoord": 0
        },
        "metallicFactor": 1,
        "metallicRoughnessTexture": {
          "index": 1,
          "texCoord": 0
        },
        "roughnessFactor": 1
      }
    }
  ],
  "meshes": [
    {
      "primitives": [
        {
          "attributes": {
            "NORMAL": 1,
            "POSITION": 0,
            "TANGENT": 2,
            "TEXCOORD_0": 3
          },
          "indices": 4,
          "material": 0,
          "mode": 4
        }
      ]
    },
    {
      "primitives": [
        {
          "attributes": {
            "NORMAL": 6,
            "POSITION": 5,
            "TANGENT": 7,
            "TEXCOORD_0": 8
          },
          "indices": 9,
          "material": 1,
          "mode": 4
        }
      ]
    },
    {
      "primitives": [
        {
          "attributes": {
            "NORMAL": 11,
            "POSITION": 10,
            "TANGENT": 12,
            "TEXCOORD_0": 13
          },
          "indices": 14,
          "material": 1,
          "mode": 4
        }
      ]
    },
    {
      "primitives": [
        {
          "attributes": {
            "NORMAL": 16,
            "POSITION": 15,
            "TANGENT": 17,
            "TEXCOORD_0": 18
          },
          "indices": 19,
          "material": 2,
          "mode": 4
        }
      ]
    }
  ],
  "nodes": [
    {
      "children": [
        1
      ],
      "name": "RootNode (gltf orientation matrix)",
      "rotation": [
        -0.70710678118654746,
        -0,
        -0,
        0.70710678118654757
      ]
    },
    {
      "children": [
        2
      ],
      "name": "RootNode (model correction matrix)"
    },
    {
      "children": [
        3,
        4,
        5,
        6
      ],
      "name": "Drone_LP.obj.cleaner.materialmerger.gles"
    },
    {
      "mesh": 0,
      "name": ""
    },
    {
      "mesh": 1,
      "name": ""
    },
    {
      "mesh": 2,
      "name": ""
    },
    {
      "mesh": 3,
      "name": ""
    }
  ],
  "samplers": [
    {
      "magFilter": 9729,
      "minFilter": 9987,
      "wrapS": 10497,
      "wrapT": 10497
    }
  ],
  "scene": 0,
  "scenes": [
    {
      "name": "OSG_Scene",
      "nodes": [
        0
      ]
    }
  ],
  "textures": [
    {
      "sampler": 0,
      "source": 0
    },
    {
      "sampler": 0,
      "source": 1
    },
    {
      "sampler": 0,
      "source": 2
    },
    {
      "sampler": 0,
      "source": 3
    },
    {
      "sampler": 0,
      "source": 4
    },
    {
      "sampler": 0,
      "source": 5
    },
    {
      "sampler": 0,
      "source": 6
    },
    {
      "sampler": 0,
      "source": 7
    },
    {
      "sampler": 0,
      "source": 8
    },
    {
      "sampler": 0,
      "source": 9
    },
    {
      "sampler": 0,
      "source": 10
    },
    {
      "sampler": 0,
      "source": 11
    }
  ]
}

